<svg width="306" height="1280" viewBox="0 0 306 1280" fill="none" xmlns="http://www.w3.org/2000/svg">
<path d="M1.99994 41V82H45.4999H88.9999V117V152H119.5H150V117V82H172.5H195V123V164H226.5H258V93.2C258 54.3 257.7 17.4 257.3 11.2L256.7 -2.44379e-06H129.3H1.99994V41Z" fill="black"/>
<path d="M102.6 195.5C77.3999 199.6 57.8999 208.2 40.7999 222.5C21.2999 239 6.49994 266.1 1.49994 294.6C-0.800061 308.1 -0.600061 346.9 1.89994 359.9C4.49994 373.3 10.0999 389.7 15.5999 400C20.7999 409.6 31.5999 424.3 38.3999 431L42.9999 435.5L65.0999 413.4L87.1999 391.3L81.1999 383.6C63.0999 360.9 57.5999 330.7 67.4999 308.5C73.0999 296 84.5999 285.2 98.4999 279.5L104.5 277.1L104.8 363.7L105 450.3L125.3 449.7C140.4 449.4 148.2 448.7 156.3 447.1C197 438.9 225 419.1 240.6 387.5C251 366.3 254.5 348.5 253.7 319.5C253 293.4 249.7 278.5 240.5 259.8C224.1 226.6 195.6 205.2 156.8 196.9C144.2 194.2 115.2 193.5 102.6 195.5ZM158.5 277.7C172 281.8 184.6 291.4 190.3 301.7C195.6 311.6 197.2 324.2 194.5 335.8C192.5 344.4 189.7 349.4 183.3 356.1C175.6 364.2 162.6 370 152 370H149V322.6V275.2L151.3 275.7C152.5 276 155.8 276.9 158.5 277.7Z" fill="black"/>
<path d="M2.99993 534.5V576H18.1999H33.2999L26.3999 583.2C18.6999 591.2 14.6999 596.7 10.4999 605C2.19993 621.5 -1.30007 642.1 0.899933 663C3.79993 691.1 13.6999 712.8 31.4999 730.5C47.6999 746.6 67.0999 756.5 93.2999 762.2C107.2 765.2 143.5 765.5 157.5 762.7C207.1 752.9 239.1 724.5 250.7 680.1C254.1 666.9 255 642.6 252.6 629.7C249.1 611.2 241.9 597.2 229.4 584.3L221.3 576H263.7H306V534.5V493H154.5H2.99993V534.5ZM141 577.4C170.9 582.8 189 602.3 189 629C189 642.8 184.1 655 174.6 664.4C162.9 676.1 148.5 681.4 128 681.4C113.6 681.4 106.4 679.9 95.1999 674.4C61.4999 657.9 57.1999 610.1 87.4999 588.4C102.1 578 121.8 574 141 577.4Z" fill="black"/>
<path d="M2 842.751V884.503H95.3735H188.747V925.752V967H220.373H252V915C252 900.915 252 899 252 867.5V801H126.297H2V842.751Z" fill="black"/>
<path d="M2.99994 1045.5V1087H127.5H252V1045.5V1004H127.5H2.99994V1045.5Z" fill="black"/>
<path d="M65.6999 1130.6C45.9999 1134.2 30.0999 1143.8 19.3999 1158.7C4.09994 1179.9 -6.224e-05 1212.3 8.19994 1247.5C11.6999 1262.5 19.0999 1280 21.9999 1280C23.0999 1280 78.7999 1265.1 79.6999 1264.6C79.7999 1264.5 78.3999 1260.4 76.4999 1255.5C68.5999 1234.4 70.3999 1220.4 81.7999 1214.8C86.4999 1212.5 86.6999 1212.5 131.8 1212.2L177 1211.9V1244V1276H214.5H252V1202.5V1129L162.8 1129.1C90.7999 1129.2 71.9999 1129.5 65.6999 1130.6Z" fill="black"/>
</svg>
