<svg xmlns="http://www.w3.org/2000/svg" width="123.22" height="121.03" viewBox="0 0 123.22 121.03">
  <metadata><?xpacket begin="﻿" id="W5M0MpCehiHzreSzNTczkc9d"?>
<x:xmpmeta xmlns:x="adobe:ns:meta/" x:xmptk="Adobe XMP Core 5.6-c140 79.160451, 2017/05/06-01:08:21        ">
   <rdf:RDF xmlns:rdf="http://www.w3.org/1999/02/22-rdf-syntax-ns#">
      <rdf:Description rdf:about=""/>
   </rdf:RDF>
</x:xmpmeta>
                                                                                                    
                                                                                                    
                                                                                                    
                                                                                                    
                                                                                                    
                                                                                                    
                                                                                                    
                                                                                                    
                                                                                                    
                                                                                                    
                                                                                                    
                                                                                                    
                                                                                                    
                                                                                                    
                                                                                                    
                                                                                                    
                                                                                                    
                                                                                                    
                                                                                                    
                                                                                                    
                           
<?xpacket end="w"?></metadata>
<defs>
    <style>
      .cls-1 {
        fill: #dfbf52;
        fill-rule: evenodd;
      }
    </style>
  </defs>
  <path id="WYCEN_PROJEKT_WYCEŃ_PROJEKT_" data-name="WYCEN PROJEKT    WYCEŃ PROJEKT  " class="cls-1" d="M1716.85,3022.51l0.57,0.34,5.92-5.24-0.87-.53-4.27,3.79,1.5-5.48-0.51-.31-4.17,3.85,1.41-5.53-0.88-.53-1.93,7.67,0.56,0.34,4.18-3.85Zm10.04,4.27-2.07,2.1,0.69,0.67,2.06-2.09,4.95-1.61-0.73-.72-3.85,1.26,1.2-3.87-0.73-.71Zm11.4,8.12a2.252,2.252,0,0,1,.03.73,1.887,1.887,0,0,1-.2.69,2.608,2.608,0,0,1-.41.61l0.56,0.86a4.609,4.609,0,0,0,.6-0.93,3.76,3.76,0,0,0,.3-1.04,3.213,3.213,0,0,0-.05-1.07,3.075,3.075,0,0,0-.46-1.04,2.967,2.967,0,0,0-.98-0.95,3.553,3.553,0,0,0-1.3-.5,4.429,4.429,0,0,0-1.45.03,4.051,4.051,0,0,0-2.52,1.67,4.066,4.066,0,0,0-.58,1.32,3.622,3.622,0,0,0-.06,1.39,3.224,3.224,0,0,0,2.28,2.61,3.453,3.453,0,0,0,1.07.13,4,4,0,0,0,1.08-.18l-0.56-.85a2.862,2.862,0,0,1-.72.13,1.972,1.972,0,0,1-.72-0.08,2.123,2.123,0,0,1-.67-0.34,2.523,2.523,0,0,1-.57-0.6,2.317,2.317,0,0,1-.34-0.93,2.565,2.565,0,0,1,.06-1.03,3.017,3.017,0,0,1,.48-1.01,3.367,3.367,0,0,1,.88-0.84,3.45,3.45,0,0,1,1.12-.49,3.222,3.222,0,0,1,1.11-.04,2.721,2.721,0,0,1,.98.34,2.239,2.239,0,0,1,.72.68A2.326,2.326,0,0,1,1738.29,3034.9Zm-0.48,11.59,2.47-.95,1.27,3.31,0.78-.3-1.27-3.31,2.24-.86,1.38,3.59,0.78-.3-1.72-4.48-7.06,2.7,1.77,4.6,0.78-.3Zm10.36,13.39-5.64.83,5.09-4.57-0.12-.83-7.48,1.11,0.14,0.95,5.64-.84-5.09,4.58,0.12,0.82,7.48-1.1Zm-0.4,17.16-7.4-1.52-0.2.94,2.83,0.58-0.33,1.59a2.338,2.338,0,0,0,0,.95,2.222,2.222,0,0,0,.34.84,2.475,2.475,0,0,0,.63.66,2.121,2.121,0,0,0,.84.37,2.148,2.148,0,0,0,.91-0.01,2.619,2.619,0,0,0,.84-0.35,2.366,2.366,0,0,0,.65-0.65,2.25,2.25,0,0,0,.37-0.87Zm-3.95.17,2.94,0.6-0.33,1.59a1.41,1.41,0,0,1-.22.52,1.487,1.487,0,0,1-.41.38,1.284,1.284,0,0,1-.53.21,1.515,1.515,0,0,1-.6,0,1.5,1.5,0,0,1-.55-0.23,1.455,1.455,0,0,1-.41-0.41,1.548,1.548,0,0,1-.22-0.51,1.369,1.369,0,0,1,0-.57Zm-8,12.75-0.43.98,3.65-.41a2.414,2.414,0,0,0,.06.93,2.442,2.442,0,0,0,.37.79,1.892,1.892,0,0,0,.88.67,2.059,2.059,0,0,0,.85.18,2.131,2.131,0,0,0,.84-0.16,2.284,2.284,0,0,0,1.26-1.21l1.13-2.58-6.92-3.04-0.39.88,2.86,1.25-0.58,1.32Zm7.46-.27-0.75,1.7a1.246,1.246,0,0,1-.3.42,1.342,1.342,0,0,1-.44.27,1.264,1.264,0,0,1-.52.08,1.32,1.32,0,0,1-.54-0.12,1.394,1.394,0,0,1-.45-0.31,1.371,1.371,0,0,1-.28-0.44,1.241,1.241,0,0,1-.1-0.5,1.255,1.255,0,0,1,.1-0.51l0.75-1.7Zm-7.25,9.88a3.181,3.181,0,0,1,.43,1.03,2.552,2.552,0,0,1,0,1.03,2.069,2.069,0,0,1-.39.91,2.133,2.133,0,0,1-.75.64,2.531,2.531,0,0,1-.99.29,3.265,3.265,0,0,1-1.11-.1,3.579,3.579,0,0,1-1.09-.54,3.357,3.357,0,0,1-.84-0.89,3.114,3.114,0,0,1-.42-1.03,2.433,2.433,0,0,1-.01-1.04,2.031,2.031,0,0,1,.39-0.9,2.325,2.325,0,0,1,.75-0.64,2.834,2.834,0,0,1,1-.3,3.245,3.245,0,0,1,1.1.11,3.09,3.09,0,0,1,1.09.54A3.357,3.357,0,0,1,1736.03,3099.57Zm-3.09,4.69a3.984,3.984,0,0,0,1.45.1,3.407,3.407,0,0,0,1.32-.42,3.23,3.23,0,0,0,1.04-.9,3.364,3.364,0,0,0,.56-1.25,3.612,3.612,0,0,0,.01-1.39,3.983,3.983,0,0,0-.52-1.36,4,4,0,0,0-3.87-1.89,3.407,3.407,0,0,0-1.32.42,3.194,3.194,0,0,0-1.03.9,3.015,3.015,0,0,0-.56,1.25,3.424,3.424,0,0,0-.02,1.39,4.268,4.268,0,0,0,.51,1.35A4.073,4.073,0,0,0,1732.94,3104.26Zm-5.44,8.67-3.67-4.14a1.214,1.214,0,0,1-.33-0.91,1.326,1.326,0,0,1,.48-0.9,1.207,1.207,0,0,1,.92-0.34,1.378,1.378,0,0,1,.9.4l0.72-.64a1.838,1.838,0,0,0-.66-0.49,2.039,2.039,0,0,0-.8-0.19,2.348,2.348,0,0,0-.85.15,2.431,2.431,0,0,0-.79.48,2.629,2.629,0,0,0-.57.73,2.481,2.481,0,0,0-.24.82,2.2,2.2,0,0,0,.09.81,1.924,1.924,0,0,0,.41.72l3.67,4.14Zm-11.28-.05,1.33,2.28-3.06,1.78,0.42,0.73,3.06-1.78,1.21,2.07-3.32,1.93,0.43,0.73,4.14-2.42-3.81-6.53-4.25,2.48,0.42,0.72Zm-7.96,11.22,0.92-.31-2.39-7.17-0.92.3Zm-5.4-6.17-1.08.36,4.28,2.62-1.67,4.47,1.09-.36,1.61-4.45Zm-10.25,9.52,5.47-.66-0.1-.84-2.26.28-0.81-6.67-0.95.11,0.81,6.67-2.27.28Zm-37.79-19.09-0.53-.4-6.42,4.62,0.81,0.62,4.64-3.35-2.05,5.3,0.47,0.36,4.55-3.41-1.96,5.37,0.82,0.61,2.69-7.44-0.53-.39-4.54,3.41Zm-9.54-5.24,2.26-1.88-0.62-.74-2.26,1.88-5.09,1.1,0.66,0.79,3.95-.87-1.57,3.73,0.65,0.79Zm-10.53-9.22a2.23,2.23,0,0,1,.03-0.73,2.322,2.322,0,0,1,.28-0.67,3.1,3.1,0,0,1,.47-0.56l-0.48-.91a4.015,4.015,0,0,0-.68.87,3.351,3.351,0,0,0-.41,1,3.2,3.2,0,0,0-.06,1.07,3.248,3.248,0,0,0,.35,1.08,3.294,3.294,0,0,0,.88,1.05,3.661,3.661,0,0,0,1.25.62,4.343,4.343,0,0,0,1.45.12,4.033,4.033,0,0,0,1.47-.45,3.8,3.8,0,0,0,1.2-.96,3.959,3.959,0,0,0,.71-1.26,3.592,3.592,0,0,0,.2-1.37,3.315,3.315,0,0,0-1.08-2.25,3.1,3.1,0,0,0-.92-0.58,3.8,3.8,0,0,0-1.06-.24,4.113,4.113,0,0,0-1.1.08l0.48,0.9a2.961,2.961,0,0,1,.73-0.06,2.088,2.088,0,0,1,.7.15,2.11,2.11,0,0,1,.64.41,2.275,2.275,0,0,1,.75,1.61,2.567,2.567,0,0,1-.16,1.02,3.039,3.039,0,0,1-.58.95,3.267,3.267,0,0,1-.96.75,3.078,3.078,0,0,1-1.16.37,2.9,2.9,0,0,1-1.11-.06,2.713,2.713,0,0,1-.94-0.44A2.208,2.208,0,0,1,1634.75,3093.9Zm1.63-11.49-2.55.69-0.92-3.42-0.81.22,0.92,3.42-2.31.63-1.01-3.71-0.81.22,1.26,4.64,7.29-1.98-1.29-4.75-0.81.21Zm-9.76-12.15-0.02-.59-1.49-.95,0.04,0.89Zm0.8-2.19,5.7-.27-5.52,4.04,0.04,0.84,7.55-.36-0.04-.96-5.7.27,5.52-4.04-0.04-.84-7.55.36Zm2.11-17.06,7.22,2.26,0.28-.92-2.75-.86,0.49-1.55a2.31,2.31,0,0,0,.1-0.94,2.368,2.368,0,0,0-.26-0.88,2.591,2.591,0,0,0-.56-0.72,2.385,2.385,0,0,0-.79-0.45,2.172,2.172,0,0,0-.91-0.08,2.6,2.6,0,0,0-.87.27,2.33,2.33,0,0,0-.72.57,2.271,2.271,0,0,0-.45.84Zm3.95,0.23-2.86-.9,0.49-1.54a1.221,1.221,0,0,1,.27-0.5,1.335,1.335,0,0,1,.44-0.34,1.516,1.516,0,0,1,.55-0.16,1.762,1.762,0,0,1,.6.07,1.683,1.683,0,0,1,.53.28,1.554,1.554,0,0,1,.36.45,1.364,1.364,0,0,1,.16.53,1.323,1.323,0,0,1-.05.56Zm9.25-11.87,0.53-.94-3.68.04a2.429,2.429,0,0,0,.03-0.93,2.661,2.661,0,0,0-.28-0.82,2.066,2.066,0,0,0-.81-0.76,2.265,2.265,0,0,0-1.69-.19,2.465,2.465,0,0,0-.77.4,2.356,2.356,0,0,0-.6.69l-1.38,2.45,6.58,3.72,0.47-.84-2.71-1.53,0.7-1.25Zm-7.45-.49,0.91-1.61a1.187,1.187,0,0,1,.35-0.39,1.3,1.3,0,0,1,.46-0.22,1.139,1.139,0,0,1,.52-0.03,1.433,1.433,0,0,1,.53.17,1.286,1.286,0,0,1,.41.36,1.133,1.133,0,0,1,.24.46,1.269,1.269,0,0,1,.05.51,1.449,1.449,0,0,1-.15.5l-0.92,1.61Zm8.2-9.1a3.059,3.059,0,0,1-.32-1.07,2.743,2.743,0,0,1,.1-1.03,2.175,2.175,0,0,1,1.29-1.42,2.5,2.5,0,0,1,1.02-.19,3.053,3.053,0,0,1,1.09.21,3.248,3.248,0,0,1,1.03.65,3.178,3.178,0,0,1,.74.96,2.918,2.918,0,0,1,.32,1.07,2.534,2.534,0,0,1-.09,1.03,2.2,2.2,0,0,1-.48.86,2.107,2.107,0,0,1-.81.56,2.509,2.509,0,0,1-1.02.2,3.22,3.22,0,0,1-2.12-.87A3.385,3.385,0,0,1,1643.48,3029.78Zm3.55-4.36a4.268,4.268,0,0,0-1.43-.25,3.681,3.681,0,0,0-1.36.29,3.107,3.107,0,0,0-1.12.8,3.172,3.172,0,0,0-.68,1.18,3.431,3.431,0,0,0-.16,1.39,4.238,4.238,0,0,0,.38,1.4,3.892,3.892,0,0,0,.92,1.23,3.748,3.748,0,0,0,1.32.79,4.169,4.169,0,0,0,1.42.25,3.492,3.492,0,0,0,1.36-.29,3.159,3.159,0,0,0,1.8-1.98,3.4,3.4,0,0,0,.16-1.38,4.174,4.174,0,0,0-.38-1.4,3.748,3.748,0,0,0-.92-1.23A3.89,3.89,0,0,0,1647.03,3025.42Zm6.27-8.08,3.25,4.48a1.23,1.23,0,0,1,.23.94,1.332,1.332,0,0,1-.56.85,1.229,1.229,0,0,1-.95.24,1.362,1.362,0,0,1-.86-0.48l-0.78.56a1.911,1.911,0,0,0,.61.56,2.13,2.13,0,0,0,.77.26,2.1,2.1,0,0,0,.86-0.06,2.487,2.487,0,0,0,.84-0.4,2.394,2.394,0,0,0,.64-0.67,2.232,2.232,0,0,0,.32-0.79,2.059,2.059,0,0,0-.01-0.82,1.82,1.82,0,0,0-.34-0.75l-3.24-4.49Zm11.23,1.17-1.09-2.4,3.22-1.47-0.35-.76-3.22,1.47-0.99-2.19,3.49-1.59-0.35-.76-4.36,1.98,3.13,6.88,4.48-2.03-0.35-.77Zm9.05-10.35-0.94.21,1.66,7.37,0.93-.21Zm4.75,6.68,1.12-.25-4-3.04,2.11-4.28-1.11.25-2.05,4.27Zm11.14-8.44-5.52.11,0.02,0.84,2.28-.05,0.14,6.72,0.96-.02-0.14-6.72,2.28-.05Z" transform="translate(-1625.09 -3006.41)"/>
</svg>
